HIERARCHY
ROOT root
{
	OFFSET	0	13.1	24.9
	CHANNELS 6  Xposition Yposition Zposition Xrotation Yrotation Zrotation
	JOINT spine_1
	{
		OFFSET	0	9.99999	0
		CHANNELS 3  Xrotation Yrotation Zrotation
		JOINT spine_2
		{
			OFFSET	0	112	-10
			CHANNELS 3  Xrotation Yrotation Zrotation
			JOINT spine_3
			{
				OFFSET	0	206.5	19.3
				CHANNELS 3  Xrotation Yrotation Zrotation
				JOINT spine_4
				{
					OFFSET	0	110.4	14.6
					CHANNELS 3  Xrotation Yrotation Zrotation
					JOINT neck_1
					{
						OFFSET	0	71.8	-50.3
						CHANNELS 3  Xrotation Yrotation Zrotation
						JOINT neck_2
						{
							OFFSET	0	86.2	-25.8
							CHANNELS 3  Xrotation Yrotation Zrotation
							JOINT head_ee
							{
								OFFSET	0	179.8	-8.7
								CHANNELS 3  Xrotation Yrotation Zrotation
								End Site
								{
									OFFSET	1	0	0
								}
							}
						}
					}
					JOINT left_clavicle
					{
						OFFSET	-43.2	22.4	-70.8
						CHANNELS 3  Xrotation Yrotation Zrotation
						JOINT left_shoulder
						{
							OFFSET	-93.9	-5.79999	48.7
							CHANNELS 3  Xrotation Yrotation Zrotation
							JOINT left_elbow
							{
								OFFSET	-291.4	-30.8	15.2
								CHANNELS 3  Xrotation Yrotation Zrotation
								JOINT left_lowarm_twist
								{
									OFFSET	-110.7	-3.89999	13.6
									CHANNELS 3  Xrotation Yrotation Zrotation
									JOINT left_hand
									{
										OFFSET	-110.7	-3.89999	13.6
										CHANNELS 3  Xrotation Yrotation Zrotation
										JOINT left_ee
										{
											OFFSET	-80.8	-5.10001	12.1
											CHANNELS 3  Xrotation Yrotation Zrotation
											End Site
											{
												OFFSET	1	0	0
											}
										}
									}
								}
							}
						}
					}
					JOINT right_clavicle
					{
						OFFSET	43.2	22.4	-70.8
						CHANNELS 3  Xrotation Yrotation Zrotation
						JOINT right_shoulder
						{
							OFFSET	93.9	-5.79999	48.7
							CHANNELS 3  Xrotation Yrotation Zrotation
							JOINT right_elbow
							{
								OFFSET	291.4	-30.8	15.2
								CHANNELS 3  Xrotation Yrotation Zrotation
								JOINT right_lowarm_twist
								{
									OFFSET	110.7	-3.89999	13.6
									CHANNELS 3  Xrotation Yrotation Zrotation
									JOINT right_hand
									{
										OFFSET	110.7	-3.89999	13.6
										CHANNELS 3  Xrotation Yrotation Zrotation
										JOINT right_ee
										{
											OFFSET	80.8	-5.10001	12.1
											CHANNELS 3  Xrotation Yrotation Zrotation
											End Site
											{
												OFFSET	1	0	0
											}
										}
									}
								}
							}
						}
					}
				}
			}
		}
	}
	JOINT left_hip
	{
		OFFSET	-82.8	-127.5	0.300001
		CHANNELS 3  Xrotation Yrotation Zrotation
		JOINT left_knee
		{
			OFFSET	-28.2	-396.7	2.2
			CHANNELS 3  Xrotation Yrotation Zrotation
			JOINT left_ankle
			{
				OFFSET	-11.7	-411.3	35.4
				CHANNELS 3  Xrotation Yrotation Zrotation
				JOINT left_toes
				{
					OFFSET	0	-60	-88.6
					CHANNELS 3  Xrotation Yrotation Zrotation
					JOINT left_foot_ee
					{
						OFFSET	-22.5	-16.5	-42.2
						CHANNELS 3  Xrotation Yrotation Zrotation
						End Site
						{
							OFFSET	1	0	0
						}
					}
				}
			}
		}
	}
	JOINT right_hip
	{
		OFFSET	82.8	-127.5	0.300001
		CHANNELS 3  Xrotation Yrotation Zrotation
		JOINT right_knee
		{
			OFFSET	28.2	-396.7	2.2
			CHANNELS 3  Xrotation Yrotation Zrotation
			JOINT right_ankle
			{
				OFFSET	11.7	-411.3	35.4
				CHANNELS 3  Xrotation Yrotation Zrotation
				JOINT right_toes
				{
					OFFSET	0	-60	-88.6
					CHANNELS 3  Xrotation Yrotation Zrotation
					JOINT right_foot_ee
					{
						OFFSET	22.5	-16.5	-42.2
						CHANNELS 3  Xrotation Yrotation Zrotation
						End Site
						{
							OFFSET	1	0	0
						}
					}
				}
			}
		}
	}
}
MOTION
Frames: 11
Frame Time: 0.02
874.852 744.808 -1598.76 -38.9457 68.3395 41.3302 4.61205 0.0343189 0.587452 4.61224 -0.00313107 0.588445 4.61206 -0.0801244 0.582973 4.61159 0.0129492 0.588311 -2.68227 -11.0101 -0.0376348 -2.49669 -19.9606 -1.56849 -0.0 0.0 -0.0 -7.35905 17.1504 -9.55236 -23.4215 -33.2998 62.9083 0.939436 -24.9554 0.207889 0.250768 0.00876824 -0.0308261 1.49951 10.3096 14.0064 -0.0 0.0 -0.0 6.38635 -14.0847 -12.141 -34.0363 25.8325 -62.4258 0.741077 20.1586 -0.131731 4.43866 -0.135106 0.550721 -0.115209 4.69129 2.7643 0.0 0.0 0.0 15.475 -1.43608 -5.6035 5.33607 -0.256222 -0.778265 12.8388 13.3833 -1.8152 -0.0307435 0.0 0.0 -0.0 0.0 -0.0 32.6094 31.1746 -7.23546 -27.7076 -0.125021 -4.20896 17.1703 -29.3727 2.56001 -10.8329 0.0 0.0 0.0 0.0 0.0 
874.964 748.491 -1598.65 -39.7062 67.5416 42.2327 4.67128 0.119162 0.539396 4.67144 0.0845975 0.545886 4.67212 0.0130032 0.552249 4.67171 0.100056 0.543265 -2.8431 -10.1323 -1.93495 -2.72098 -16.9045 -3.45123 -0.0 0.0 -0.0 -7.27424 17.0725 -9.43936 -22.4422 -33.6272 63.426 0.986259 -26.0379 0.228045 2.0826 0.0687085 -0.257108 1.99787 10.5867 17.4287 -0.0 0.0 -0.0 6.55067 -14.2127 -12.411 -33.2694 26.341 -62.3852 0.713432 19.4641 -0.122362 4.1669 -0.128064 0.516719 -0.26607 2.93931 3.03242 0.0 0.0 0.0 15.6515 -2.17136 -5.83274 5.14383 -0.245736 -0.750651 12.5018 10.6861 -1.76346 -1.46663 0.0 0.0 -0.0 0.0 -0.0 32.6286 30.3783 -7.20802 -25.6265 -0.186586 -3.89553 16.6355 -29.7573 2.49196 -10.3991 0.0 0.0 0.0 0.0 0.0 
871.314 746.513 -1605.07 -40.4233 67.7724 42.9412 4.80078 0.146884 0.544408 4.80094 0.111945 0.552651 4.80189 0.0405163 0.562417 4.80147 0.12883 0.548961 -2.93871 -9.84774 -1.11968 -2.81792 -17.0333 -2.57437 -0.0 0.0 -0.0 -7.21122 17.333 -9.25478 -21.2185 -33.802 63.8523 1.02621 -26.9462 0.245869 2.27206 0.0744938 -0.280617 1.98983 10.7006 17.414 -0.0 0.0 -0.0 6.83859 -14.3255 -12.8888 -32.8624 26.5683 -62.1673 0.67357 18.4522 -0.109411 4.45799 -0.1356 0.55314 -0.675135 1.61335 5.214 0.0 0.0 0.0 15.424 -1.87749 -5.99216 4.78895 -0.226621 -0.699583 10.1972 12.1746 -1.45253 -2.39828 0.0 0.0 -0.0 0.0 -0.0 33.4222 30.7501 -7.94359 -27.3936 -0.135039 -4.16182 16.4276 -29.6243 2.46035 -11.3391 0.0 0.0 0.0 0.0 0.0 
865.182 745.485 -1608.47 -39.8916 67.4841 42.1675 5.00287 0.219421 0.666342 5.0031 0.176576 0.678954 5.00499 0.090975 0.695615 5.00437 0.19969 0.672519 -2.59415 -10.1161 -2.3953 -2.46977 -16.4797 -3.89978 -0.0 0.0 -0.0 -7.35862 18.5694 -9.09518 -21.1436 -33.6028 63.8463 1.06168 -27.7402 0.262158 2.89824 0.0930614 -0.358445 2.20591 10.2942 18.7356 -0.0 0.0 -0.0 6.35322 -15.2795 -12.0317 -32.7397 27.4897 -61.7964 0.701632 19.1659 -0.118459 3.37673 -0.106675 0.418051 -0.491331 2.40346 4.31853 0.0 0.0 0.0 16.1724 -3.40771 -6.20153 1.07186 -0.0456192 -0.158152 13.0383 10.4594 -1.83511 -3.95021 0.0 0.0 -0.0 0.0 -0.0 32.8788 30.933 -7.74082 -25.4414 -0.191509 -3.86755 14.3311 -29.8478 2.16574 -11.5108 0.0 0.0 0.0 0.0 0.0 
856.511 745.169 -1610.26 -40.3365 66.9345 42.5725 5.17324 0.219887 0.704957 5.1735 0.174585 0.71752 5.17545 0.0863967 0.733382 5.17475 0.201134 0.710535 -1.866 -10.8276 -2.65143 -1.70479 -17.4587 -4.17676 -0.0 0.0 -0.0 -7.57311 19.7511 -9.04288 -21.8597 -33.3804 63.8816 1.10344 -28.6608 0.281896 3.02758 0.0967906 -0.374547 2.18554 9.57154 18.3475 -0.0 0.0 -0.0 5.71538 -16.5303 -10.9429 -32.6914 28.162 -62.0111 0.738919 20.1046 -0.130988 1.58946 -0.053285 0.196008 -0.329516 3.67219 3.7737 0.0 0.0 0.0 16.7095 -4.27134 -6.21767 -1.38568 0.0545705 0.205645 18.357 8.57765 -2.52565 -6.69467 0.0 0.0 -0.0 0.0 -0.0 32.7453 30.9673 -7.68725 -24.7168 -0.209912 -3.75787 13.7825 -29.9036 2.08754 -10.8518 0.0 0.0 0.0 0.0 0.0 
851.661 743.631 -1610.34 -39.5312 66.0631 41.6537 5.30917 0.239097 0.743792 5.30945 0.191284 0.757498 5.3117 0.0999763 0.774853 5.31093 0.221092 0.749341 -3.16973 -11.6608 -3.04513 -3.02172 -18.8812 -4.86064 -0.0 0.0 -0.0 -7.69949 20.676 -8.92582 -22.1007 -33.3164 64.1098 1.20269 -30.7843 0.331109 4.4327 0.134953 -0.549975 2.15935 9.13419 18.0165 -0.0 0.0 -0.0 4.46406 -16.9757 -8.94508 -32.0297 29.0079 -62.5192 0.898503 23.9932 -0.190931 -0.367554 0.0130955 -0.0451133 -0.152994 5.55089 3.38636 0.0 0.0 0.0 17.0248 -4.96792 -6.46749 -3.36568 0.12387 0.501599 22.353 7.27219 -3.01816 -9.50491 0.0 0.0 -0.0 0.0 -0.0 32.771 31.1237 -7.50052 -23.9078 -0.228814 -3.63517 13.6033 -29.7895 2.05998 -10.3163 0.0 0.0 0.0 0.0 0.0 
849.885 743.24 -1614.68 -40.5349 65.7443 42.3455 5.45821 0.251347 0.789901 5.45854 0.200576 0.804293 5.46102 0.10579 0.822146 5.46015 0.234301 0.795124 -4.47136 -12.3897 -3.32838 -4.35059 -20.2259 -5.44646 -0.0 0.0 -0.0 -7.85021 21.3632 -8.91827 -22.3169 -33.1046 63.9417 1.26481 -32.0678 0.363503 5.39419 0.158581 -0.670522 2.11053 8.75923 17.5521 -0.0 0.0 -0.0 3.98553 -17.315 -8.19539 -30.2057 29.6442 -63.5389 1.02172 26.8447 -0.243834 -1.70422 0.0631557 -0.208455 -0.0279517 6.87353 3.10611 0.0 0.0 0.0 17.3648 -6.16365 -6.65393 -4.21011 0.150303 0.628498 24.1164 6.42838 -3.2277 -11.8263 0.0 0.0 -0.0 0.0 -0.0 32.6643 31.4423 -7.4519 -23.3931 -0.23994 -3.55696 13.5146 -29.7494 2.04657 -9.22324 0.0 0.0 0.0 0.0 0.0 
845.806 744.271 -1618.11 -40.8274 64.9925 42.2234 5.55207 0.26071 0.817153 5.55241 0.208186 0.832085 5.55507 0.111517 0.850452 5.55414 0.244426 0.82217 -4.94087 -12.0898 -1.89134 -4.84518 -20.8302 -4.00709 -0.0 0.0 -0.0 -7.53591 21.7651 -8.31133 -21.1578 -33.1413 64.7441 1.43502 -35.4058 0.458076 6.44886 0.182167 -0.803182 1.98943 8.76975 16.734 -0.0 0.0 -0.0 3.6861 -17.203 -7.72665 -30.0878 30.4279 -63.1082 1.1077 28.7537 -0.283941 -2.38764 0.090222 -0.291514 0.0510411 7.8082 2.97089 0.0 0.0 0.0 17.9585 -6.45429 -6.73125 -5.16429 0.177915 0.772329 24.5744 5.91227 -3.28154 -13.7822 0.0 0.0 -0.0 0.0 -0.0 31.8977 31.4166 -7.08555 -23.0817 -0.246327 -3.50961 19.9419 -29.1676 2.93741 -7.84557 0.0 0.0 0.0 0.0 0.0 
842.499 747.713 -1620.02 -41.0593 64.6734 42.2201 5.73397 0.271545 0.827503 5.73432 0.218341 0.843104 5.73714 0.123085 0.862174 5.7362 0.2577 0.831919 -6.61773 -12.3837 -2.83262 -6.58916 -20.9363 -5.28762 -0.0 0.0 -0.0 -7.13996 21.8643 -7.69279 -20.907 -33.3586 65.122 1.41123 -34.9547 0.444365 7.30798 0.199572 -0.911545 2.02229 8.80369 16.9687 -0.0 0.0 -0.0 3.4404 -17.3732 -7.34725 -29.0529 30.9028 -63.2068 1.16247 29.9345 -0.31078 -2.76481 0.105584 -0.337216 0.0716456 7.94667 2.89067 0.0 0.0 0.0 18.3265 -7.12942 -6.38389 -5.68988 0.1921 0.851742 24.4053 5.58785 -3.26211 -14.9571 0.0 0.0 -0.0 0.0 -0.0 31.1624 31.572 -6.90595 -22.8162 -0.251572 -3.4692 20.2523 -29.1279 2.97859 -7.42966 0.0 0.0 0.0 0.0 0.0 
842.618 746.15 -1623.49 -42.1009 64.2856 42.1977 5.79293 0.272738 0.819627 5.79327 0.220032 0.835319 5.79609 0.126512 0.854497 5.79516 0.259871 0.823796 -7.02896 -12.4144 -1.90144 -7.02791 -21.7253 -4.43976 -0.0 0.0 -0.0 -7.09447 21.9924 -7.58439 -21.1828 -33.3954 64.9649 1.63665 -39.0303 0.580089 8.21091 0.216111 -1.0257 2.04388 8.0622 16.8504 -0.0 0.0 -0.0 3.47577 -17.4095 -7.403 -28.3389 31.4574 -63.2447 1.17488 30.1984 -0.316999 -3.30926 0.128289 -0.403008 0.113327 8.38021 2.79385 0.0 0.0 0.0 18.7016 -7.45241 -6.15962 -5.87108 0.196821 0.879149 26.0914 5.07718 -3.45729 -15.1347 0.0 0.0 -0.0 0.0 -0.0 30.2954 31.8953 -5.63482 -21.1649 -0.279974 -3.21742 18.2346 -29.2598 2.70567 -7.34583 0.0 0.0 0.0 0.0 0.0 
843.712 748.571 -1627.3 -41.7414 63.7528 41.203 5.95865 0.285791 0.879143 5.95905 0.229272 0.895545 5.96216 0.131705 0.914996 5.9611 0.274553 0.882717 -8.35824 -12.1669 -1.3351 -8.42851 -21.8349 -4.0725 -0.0 0.0 -0.0 -7.40746 22.2419 -7.9618 -21.535 -34.4719 64.4537 1.80816 -41.8471 0.691368 9.45232 0.235907 -1.18303 2.12628 7.45264 17.1926 -0.0 0.0 -0.0 3.8157 -18.7458 -7.94582 -27.6656 31.6687 -62.3443 1.18658 30.4458 -0.322908 -3.5751 0.139603 -0.435055 0.0426314 8.21931 3.20317 0.0 0.0 0.0 18.8359 -7.76405 -6.09696 -5.87873 0.197019 0.880306 25.0821 4.40317 -3.34277 -15.8673 0.0 0.0 -0.0 0.0 -0.0 29.5097 32.1675 -4.77816 -19.9909 -0.295748 -3.03796 22.5643 -28.2413 3.26677 -6.70372 0.0 0.0 0.0 0.0 0.0 
